<?xml version="1.0" encoding="utf-8"?>
<!-- Generator: Adobe Illustrator 28.3.0, SVG Export Plug-In . SVG Version: 6.00 Build 0)  -->
<svg version="1.1" id="Layer_1" xmlns="http://www.w3.org/2000/svg" xmlns:xlink="http://www.w3.org/1999/xlink" x="0px" y="0px"
	 viewBox="0 0 1302.2 373.6" style="enable-background:new 0 0 1302.2 373.6;" xml:space="preserve">
<style type="text/css">
	.st0{fill:#FFFFFF;}
</style>
<g>
	<path class="st0" d="M153,32.6L153,32.6c-9.8,0-18.1,6.4-20.9,15.3l-72,226.4h47L184,32.6H153z"/>
	<path class="st0" d="M249.3,274.3L249.3,274.3h31L203.5,32.6L180,106.5l22.9,71.9h-45.7L146,213.5v0.1h68l14.6,45.9
		C231.6,268.1,239.7,274.3,249.3,274.3"/>
	<rect x="296.8" y="122.7" class="st0" width="47.2" height="151.7"/>
	<rect x="296.8" y="67.9" class="st0" width="47.2" height="35.2"/>
	<path class="st0" d="M421.5,127.1v-23.9h-47.2v171.2h47.2v-77.2c0,0-0.2-46.8,53.1-46.8v-47.2C434.9,103.2,421.5,127.1,421.5,127.1
		"/>
	<path class="st0" d="M824.5,100.7c-40.8,0-73.9,25.3-73.9,56.5l0,0h47.2l0,0c0-11.3,12-20.4,26.7-20.4s26.7,9.1,26.7,20.4v10.6
		c0,0,0,10.2-12,10.2h-41.6c-27.2,0-49.2,21.6-49.2,48.2s22,48.2,49.2,48.2h34.2v-27.9h-25.2c-11.2,0-20.2-9.1-20.2-20.3
		s9-20.3,20.2-20.3h34c10.5,0,10.5-9.8,10.5-9.8v58.8c0,0,0,18.7,19.7,19.4h27.5V157.2C898.4,126,865.3,100.7,824.5,100.7"/>
	<polygon class="st0" points="1009.4,103.1 1008.2,103.2 987,169.7 1010.6,243.8 1055.2,103.2 	"/>
	<path class="st0" d="M994.6,293.8c6.3-19.5-0.6-41.1-0.6-41.1l-16.6-52.3l-30.9-97.2h-47.1l54.4,171.2h0.1c0,0-6.2,19.5-23.3,19.5
		H53.9l-15,47.2h893.7C979.6,341,994.6,293.8,994.6,293.8"/>
	<path class="st0" d="M1214.9,217c0-9.7-3.9-41.8-55.9-47.1c-16.8-1.7-27.8-3.8-35-6.4c-10.3-3.7-12.8-8.5-12.8-14.9
		c0,0,0.9-12.4,23.9-12.4c15.2,0,23.9,8.9,23.9,18.5h47.2c0-29.9-33.5-54.1-74.8-54.1c-21.1,0-40.1,6.3-53.7,16.5
		c-13.1,9.7-21.1,23-21.1,37.6c0,0-2.2,40.1,54.5,46.6c15.2,1.7,25.7,4.1,33,6.6c17.6,6.1,16.3,13.3,16.3,15.8
		c0,5.4-4.1,17.7-25.7,17.7c-29.3,0-29.1-24.4-29.1-24.4h-49c0,0-2.9,59.7,79.1,59.7c30.5,0,49.3-8.1,60.8-18.3
		C1216.4,240.9,1214.9,217,1214.9,217"/>
	<path class="st0" d="M564.3,200.4l-30.9-97.2h-47.1l49.6,156.1c2.9,8.7,11.1,15,20.8,15l0,0h31.1L564.3,200.4z"/>
	<path class="st0" d="M704.2,103.2l-30.9,97.2l-30.9-97.2l0,0l0,0h-31.5c-9.5,0.2-17.6,6.4-20.4,15.1L574,169.9l23.5,74l21.2-66.7
		l26.1,82.1c2.9,8.7,11.1,15,20.7,15l0,0h31.1h0.1l54.4-171.2h-46.9V103.2z"/>
	<path class="st0" d="M1242.2,119.3c-9.7,0-17.5,7.9-17.5,17.5c0,9.7,7.9,17.5,17.5,17.5s17.5-7.9,17.5-17.5
		S1251.9,119.3,1242.2,119.3 M1242.2,157.9c-11.6,0-21.1-9.5-21.1-21.1s9.5-21.1,21.1-21.1s21.1,9.5,21.1,21.1
		C1263.3,148.5,1253.8,157.9,1242.2,157.9"/>
	<path class="st0" d="M1240,134.3h1.4c1.4,0,2.4-0.2,2.9-0.6c0.5-0.4,0.8-1,0.8-1.9c0-0.5-0.1-1-0.4-1.3c-0.3-0.4-0.6-0.7-1.1-0.8
		c-0.4-0.2-1.3-0.2-2.4-0.2h-1.2L1240,134.3L1240,134.3z M1235.6,125.1h4.7c2.6,0,4.4,0.2,5.5,0.7s2,1.2,2.7,2.3
		c0.7,1.1,1,2.3,1,3.8s-0.4,2.8-1.1,3.9c-0.7,1-1.8,1.8-3.3,2.4l5.6,10.4h-4.9l-5.3-9.9h-0.4v9.9h-4.5L1235.6,125.1L1235.6,125.1z"
		/>
</g>
</svg>
